<?xml version="1.0" encoding="utf-8"?>
<!-- Generator: Adobe Illustrator 16.0.0, SVG Export Plug-In . SVG Version: 6.00 Build 0)  -->
<!DOCTYPE svg PUBLIC "-//W3C//DTD SVG 1.1//EN" "http://www.w3.org/Graphics/SVG/1.1/DTD/svg11.dtd">
<svg version="1.1" id="Layer_1" xmlns="http://www.w3.org/2000/svg" xmlns:xlink="http://www.w3.org/1999/xlink" x="0px" y="0px"
	 width="800px" height="436.297px" viewBox="0 0 800 436.297" enable-background="new 0 0 800 436.297" xml:space="preserve">
<polygon fill="#ED1C24" points="195.526,243.184 401.411,9.601 606.027,252.857 534.476,337.005 363.25,127.317 226.826,285.044 "/>
<polygon points="343.694,246.874 343.694,323.209 417.619,340.224 417.619,259.294 "/>
<polygon points="268.435,369.555 276.292,369.555 294.046,397.431 311.492,369.555 319.307,369.555 297.501,404.389 
	297.501,436.297 290.617,436.297 290.617,404.389 "/>
<path fill-rule="evenodd" clip-rule="evenodd" d="M375.581,369.555l32.041,66.742h-7.382l-10.724-21.932h-29.759l-10.65,21.932
	h-7.661l32.412-66.742H375.581z M374.716,383.559l-11.792,24.293h23.564L374.716,383.559z"/>
<path fill-rule="evenodd" clip-rule="evenodd" d="M435.39,369.555h13.681c7.853,0,13.145,0.333,15.887,0.998
	c3.935,0.939,7.134,2.868,9.624,5.786c2.489,2.912,3.748,6.586,3.748,10.99c0,4.445-1.216,8.11-3.646,11.005
	c-2.43,2.891-5.777,4.827-10.049,5.831c-3.114,0.718-8.935,1.079-17.463,1.079h-4.899v31.053h-6.883V369.555z M442.272,376.064
	v22.684l11.638,0.134c4.71,0,8.142-0.423,10.333-1.248c2.168-0.833,3.894-2.182,5.129-4.046c1.25-1.854,1.875-3.935,1.875-6.235
	c0-2.23-0.625-4.28-1.875-6.141c-1.235-1.857-2.882-3.191-4.923-3.97c-2.048-0.787-5.387-1.178-10.021-1.178H442.272z"/>
<rect x="508.116" y="369.551" width="6.887" height="66.737"/>
<path fill-rule="evenodd" clip-rule="evenodd" d="M648.548,119.958h18.051c20.026,0,30.526-14.713,29.096-28.504
	c-0.955-13.796-14.32-24.831-36.249-24.831h-56.276v53.335H648.548z M648.59,166.399c-26.242,0-45.421,0-45.421,0v83.237
	l-96.358-114.042V18.796h186.496c60.575,0,98.736,29.894,101.124,68.059c0.471,0.455,0.471,0.917,0.471,1.38v7.813
	c-2.379,34.944-30.527,69.432-81.088,70.352C690.447,166.863,667.666,166.399,648.59,166.399z"/>
<path fill-rule="evenodd" clip-rule="evenodd" d="M152.099,11.437h38.487c69.635,0,114.466,43.684,120.673,100.708L195.358,243.196
	H-0.2c0,0,1.047-231.653,0.953-231.759H152.099z M150.535,70.313c-0.473,0,0.466-0.014-0.021-0.014H94.715v114.037h67.729
	c32.43,0,49.133-32.182,47.701-61.149C208.238,94.212,185.357,70.777,150.535,70.313z"/>
</svg>
